<?xml version="1.0" encoding="utf-8"?>
<!-- Generator: Adobe Illustrator 22.0.0, SVG Export Plug-In . SVG Version: 6.00 Build 0)  -->
<svg version="1.1" id="Layer_1" xmlns="http://www.w3.org/2000/svg" xmlns:xlink="http://www.w3.org/1999/xlink" x="0px" y="0px"
	 viewBox="0 0 64 64" style="enable-background:new 0 0 64 64;" xml:space="preserve">
<style type="text/css">
	.st0{fill:url(#SVGID_1_);}
	.st1{fill:url(#SVGID_2_);}
	.st2{fill:url(#SVGID_3_);}
	.st3{fill:url(#SVGID_4_);}
	.st4{fill:url(#SVGID_5_);}
	.st5{fill:url(#SVGID_6_);}
	.st6{fill:url(#SVGID_7_);}
	.st7{fill:url(#SVGID_8_);}
	.st8{fill:url(#SVGID_9_);}
</style>
<g>
	<g>
		<g>
			<g>
				
					<linearGradient id="SVGID_1_" gradientUnits="userSpaceOnUse" x1="-14.1903" y1="152.8003" x2="-14.1903" y2="205.176" gradientTransform="matrix(0.7071 0.7071 -0.7071 0.7071 169.769 -83.1692)">
					<stop  offset="0" style="stop-color:#3E1BC0"/>
					<stop  offset="6.904007e-02" style="stop-color:#421CC1"/>
					<stop  offset="0.1451" style="stop-color:#501EC6"/>
					<stop  offset="0.2244" style="stop-color:#6621CD"/>
					<stop  offset="0.3061" style="stop-color:#8525D7"/>
					<stop  offset="0.3896" style="stop-color:#AC2BE5"/>
					<stop  offset="0.4733" style="stop-color:#DC32F4"/>
					<stop  offset="0.5" style="stop-color:#ED34FA"/>
					<stop  offset="1" style="stop-color:#FCC561"/>
				</linearGradient>
				<path class="st0" d="M56.7,46.4L43.4,59.7c-5.7,5.7-15,5.7-20.7,0l-4.5-4.6c-2.9-2.9-4.5-6.3-5-9.9c-1.3-8.8,4.4-18.1,14.3-19.8
					l10.4-1.9c0.3-0.1,0.6-0.2,0.9-0.3c0,0,0,0,0,0c0.7-0.3,1.3-0.7,1.8-1.3c0.6-0.6,1.1-1.4,1.4-2.2c0.7-1.9,0.4-4.1-1.1-5.8
					c-1.2-1.3-3.1-1.8-4.9-1.5L27.6,14L29.9,0c0.2,0,0.5,0,0.7,0c0.3,0,0.6,0,0.8,0c0.3,0,0.5,0,0.8,0c0,0,0,0,0,0
					c0.2,0,0.5,0,0.7,0.1c0.1,0,0.1,0,0.2,0c0.2,0,0.3,0,0.5,0.1c0.5,0.1,1,0.2,1.4,0.3c0.2,0,0.4,0.1,0.5,0.2
					c0.2,0.1,0.3,0.1,0.5,0.2c0.2,0.1,0.4,0.2,0.6,0.2c0.2,0.1,0.3,0.1,0.5,0.2c0,0,0,0,0,0c0.4,0.2,0.8,0.4,1.3,0.7
					c1,0.6,2,1.4,2.9,2.2l4.5,4.6c0.2,0.2,0.5,0.5,0.7,0.8c2.4,2.7,3.8,5.9,4.3,9.2c1.2,8.8-4.4,18-14.3,19.8l-10.4,1.9
					c-0.3,0.1-0.6,0.2-0.9,0.3c0,0,0,0,0,0c-0.7,0.3-1.3,0.7-1.8,1.3c-0.6,0.6-1.1,1.4-1.4,2.2c-0.7,1.9-0.4,4.1,1.1,5.8
					c1.2,1.3,3.1,1.8,4.9,1.5l22.7-4L56.7,46.4z"/>
				
					<linearGradient id="SVGID_2_" gradientUnits="userSpaceOnUse" x1="12.4207" y1="164.0497" x2="-25.0213" y2="188.7756" gradientTransform="matrix(0.7071 0.7071 -0.7071 0.7071 169.769 -83.1692)">
					<stop  offset="0" style="stop-color:#FCC561"/>
					<stop  offset="0.5" style="stop-color:#ED34FA"/>
					<stop  offset="0.5267" style="stop-color:#DC32F4"/>
					<stop  offset="0.6104" style="stop-color:#AC2BE5"/>
					<stop  offset="0.6939" style="stop-color:#8525D7"/>
					<stop  offset="0.7756" style="stop-color:#6621CD"/>
					<stop  offset="0.8549" style="stop-color:#501EC6"/>
					<stop  offset="0.931" style="stop-color:#421CC1"/>
					<stop  offset="1" style="stop-color:#3E1BC0"/>
				</linearGradient>
				<path class="st1" d="M59.8,43.3L43.4,59.7c-5.7,5.7-15,5.8-20.7,0c-8.4-8.4-8.1-13.2-5.5-15.8c2.7-2.7,7.7-3.2,8-3.2
					c-0.7,0.3-1.3,0.7-1.8,1.3c-0.6,0.6-1.1,1.4-1.4,2.2c-0.7,1.9-0.4,4.1,1.1,5.8c1.2,1.3,3.1,1.8,4.9,1.5l13.4-2.4
					c6-1.1,11.5-3.9,15.9-8.3h0c4.3-4.3,4.3-11.3,0-15.6l-6.4-6.4c-0.4-3.3-1.8-6.5-4.3-9.2l13.2,13.2
					C65.4,28.5,65.4,37.6,59.8,43.3z"/>
				<linearGradient id="SVGID_3_" gradientUnits="userSpaceOnUse" x1="0.8532" y1="35.8821" x2="49.5228" y2="17.787">
					<stop  offset="0" style="stop-color:#3E1BC0"/>
					<stop  offset="6.904007e-02" style="stop-color:#421CC1"/>
					<stop  offset="0.1451" style="stop-color:#501EC6"/>
					<stop  offset="0.2244" style="stop-color:#6621CD"/>
					<stop  offset="0.3061" style="stop-color:#8525D7"/>
					<stop  offset="0.3896" style="stop-color:#AC2BE5"/>
					<stop  offset="0.4733" style="stop-color:#DC32F4"/>
					<stop  offset="0.5" style="stop-color:#ED34FA"/>
					<stop  offset="1" style="stop-color:#FCC561"/>
				</linearGradient>
				<path class="st2" d="M48.4,16.3c-0.1,1.6-0.7,2.8-1.6,3.7c-2.7,2.7-7.7,3.2-8,3.2c0.7-0.3,1.3-0.7,1.8-1.3
					c0.6-0.6,1.1-1.4,1.4-2.2c0.7-1.9,0.4-4.1-1.1-5.8c-1.2-1.3-3.1-1.8-4.9-1.5l-13.3,2.3c-0.6,0.1-1.2,0.2-1.8,0.4c0,0,0,0,0,0
					c-5.4,1.3-10.3,4-14.2,8c-2.1,2.1-3.2,4.9-3.2,7.8c0,2.8,1.1,5.7,3.2,7.8l6.4,6.4c0,0,0.1,0.1,0.1,0.1c0.5,3.5,2.1,6.9,5,9.8
					L4.2,41.2c-2-2-3.3-4.5-3.9-7.2C0.1,33,0,31.9,0,30.8c0-0.8,0.1-1.6,0.2-2.4c0,0,0,0,0,0c0.5-2.8,1.8-5.5,4-7.6L20.8,4.2
					c0.5-0.5,1.1-1,1.7-1.4c0.1-0.1,0.2-0.2,0.4-0.3C25,1,27.4,0.2,29.9,0c3-0.2,6.2,0.5,8.8,2.2c0.1,0,0.2,0.1,0.2,0.2
					c0.2,0.1,0.3,0.2,0.5,0.3c0,0,0,0,0.1,0c0.6,0.4,1.1,0.9,1.7,1.4l1.4,1.4C47,10.3,48.5,13.8,48.4,16.3z"/>
			</g>
			<linearGradient id="SVGID_4_" gradientUnits="userSpaceOnUse" x1="10.4446" y1="15.3658" x2="10.4446" y2="55.2328">
				<stop  offset="0" style="stop-color:#FCC561"/>
				<stop  offset="0.5" style="stop-color:#ED34FA"/>
				<stop  offset="0.5267" style="stop-color:#DC32F4"/>
				<stop  offset="0.6104" style="stop-color:#AC2BE5"/>
				<stop  offset="0.6939" style="stop-color:#8525D7"/>
				<stop  offset="0.7756" style="stop-color:#6621CD"/>
				<stop  offset="0.8549" style="stop-color:#501EC6"/>
				<stop  offset="0.931" style="stop-color:#421CC1"/>
				<stop  offset="1" style="stop-color:#3E1BC0"/>
			</linearGradient>
			<path class="st3" d="M13.1,45.3c0.5,3.5,2.1,6.9,5,9.8L4.2,41.2c-2-2-3.3-4.5-3.9-7.2C0.1,33,0,31.9,0,30.8c0-0.1,0-0.1,0-0.2
				c0-0.8,0.1-1.5,0.2-2.3c0,0,0,0,0,0c2.3-10.6,20.1-13.1,20.7-13.1c-5.4,1.3-10.3,4-14.2,8c-2.1,2.1-3.2,4.9-3.2,7.8
				c0,2.8,1.1,5.7,3.2,7.8l6.4,6.4C13.1,45.2,13.1,45.3,13.1,45.3z"/>
			
				<linearGradient id="SVGID_5_" gradientUnits="userSpaceOnUse" x1="405.8678" y1="290.9756" x2="405.8678" y2="330.8426" gradientTransform="matrix(-1 0 0 -1 459.4 339.62)">
				<stop  offset="0" style="stop-color:#3E1BC0"/>
				<stop  offset="6.904007e-02" style="stop-color:#421CC1"/>
				<stop  offset="0.1451" style="stop-color:#501EC6"/>
				<stop  offset="0.2244" style="stop-color:#6621CD"/>
				<stop  offset="0.3061" style="stop-color:#8525D7"/>
				<stop  offset="0.3896" style="stop-color:#AC2BE5"/>
				<stop  offset="0.4733" style="stop-color:#DC32F4"/>
				<stop  offset="0.5" style="stop-color:#ED34FA"/>
				<stop  offset="1" style="stop-color:#FCC561"/>
			</linearGradient>
			<path class="st4" d="M50.8,18.7c-0.5-3.5-2.1-6.9-5-9.8l13.9,13.9c2,2,3.3,4.5,3.9,7.2c0.2,1.1,0.3,2.2,0.3,3.2
				c0,0.1,0,0.1,0,0.2c0,0.8-0.1,1.5-0.2,2.3c0,0,0,0,0,0c-2.3,10.6-20.1,13.1-20.7,13.1c5.4-1.3,10.3-4,14.2-8
				c2.1-2.1,3.2-4.9,3.2-7.8c0-2.8-1.1-5.7-3.2-7.8l-6.4-6.4C50.9,18.8,50.8,18.7,50.8,18.7z"/>
			<g>
				
					<linearGradient id="SVGID_6_" gradientUnits="userSpaceOnUse" x1="-26.9926" y1="226.3058" x2="-13.9298" y2="226.3058" gradientTransform="matrix(0.7071 0.7071 -0.7071 0.7071 196.4365 -97.3477)">
					<stop  offset="0" style="stop-color:#F7E939"/>
					<stop  offset="0.2255" style="stop-color:#F7E939;stop-opacity:0"/>
					<stop  offset="0.5" style="stop-color:#F7E939"/>
					<stop  offset="0.7402" style="stop-color:#F7E939;stop-opacity:0"/>
					<stop  offset="1" style="stop-color:#F7E939"/>
				</linearGradient>
				<path class="st5" d="M21.2,58.2c0,0-0.3-0.3-0.7-0.8c-0.2-0.3-0.5-0.5-0.8-0.9c-0.3-0.4-0.7-0.8-1-1.2c-0.3-0.5-0.8-1-1.1-1.6
					c-0.4-0.6-0.7-1.2-1.1-1.9c-0.1-0.3-0.3-0.7-0.4-1c-0.1-0.4-0.3-0.7-0.3-1.1c-0.2-0.8-0.3-1.6-0.2-2.4c0.1-0.8,0.4-1.6,0.8-2.3
					c0.4-0.7,1-1.3,1.6-1.7c0.6-0.5,1.2-0.8,1.8-1.1c0.6-0.3,1.2-0.5,1.8-0.7c1.1-0.4,2.1-0.5,2.8-0.6c0.7-0.1,1.1-0.1,1.1-0.1
					s-0.4,0.1-1.1,0.2c-0.7,0.1-1.6,0.4-2.7,0.8c-1.1,0.4-2.3,1-3.5,1.9c-0.6,0.5-1.1,1-1.4,1.6c-0.4,0.6-0.6,1.4-0.7,2.1
					c-0.1,0.7,0,1.5,0.2,2.2c0.1,0.4,0.2,0.7,0.3,1.1c0.1,0.3,0.3,0.7,0.4,1c0.3,0.6,0.6,1.3,1,1.8c0.3,0.6,0.7,1.1,1,1.6
					c0.3,0.5,0.7,0.9,0.9,1.3c0.3,0.4,0.6,0.7,0.8,1C21,57.9,21.2,58.2,21.2,58.2z"/>
				
					<linearGradient id="SVGID_7_" gradientUnits="userSpaceOnUse" x1="-33.0685" y1="189.2792" x2="-22.5853" y2="189.2792" gradientTransform="matrix(0.7071 0.7071 -0.7071 0.7071 196.4365 -97.3477)">
					<stop  offset="0" style="stop-color:#F7E939"/>
					<stop  offset="0.2255" style="stop-color:#F7E939;stop-opacity:0"/>
					<stop  offset="0.5" style="stop-color:#F7E939"/>
					<stop  offset="0.7402" style="stop-color:#F7E939;stop-opacity:0"/>
					<stop  offset="1" style="stop-color:#F7E939"/>
				</linearGradient>
				<path class="st6" d="M44.5,7.8c0,0,0.2,0.3,0.6,0.7c0.2,0.2,0.4,0.5,0.7,0.9c0.3,0.3,0.6,0.7,0.8,1.2c0.1,0.2,0.3,0.5,0.4,0.7
					c0.1,0.3,0.3,0.5,0.4,0.8c0.2,0.3,0.3,0.6,0.4,0.9c0.1,0.1,0.1,0.3,0.2,0.5c0,0.2,0.1,0.3,0.1,0.5c0,0.2,0.1,0.3,0.1,0.5
					c0,0.2,0.1,0.3,0.1,0.5c0.1,0.3,0.1,0.7,0.1,1.1c0,0.7,0,1.5-0.3,2.2c-0.3,0.7-0.6,1.3-1.1,1.9c-0.5,0.5-1,1-1.6,1.3
					c-0.6,0.4-1.2,0.6-1.7,0.9c-0.6,0.2-1.1,0.4-1.6,0.5c-1,0.3-1.9,0.4-2.5,0.5c-0.6,0.1-1,0.1-1,0.1s0.3,0,0.9-0.2
					c0.6-0.1,1.5-0.3,2.4-0.7c0.5-0.2,1-0.4,1.6-0.6c0.5-0.3,1.1-0.6,1.6-0.9c0.5-0.4,1-0.8,1.5-1.3c0.4-0.5,0.8-1.1,1-1.7
					c0.3-0.6,0.3-1.3,0.3-2c0-0.3,0-0.7-0.1-1c0-0.2-0.1-0.3-0.1-0.5c0-0.2-0.1-0.3-0.1-0.5c0-0.2-0.1-0.3-0.1-0.5
					c-0.1-0.1-0.1-0.3-0.2-0.4c-0.1-0.3-0.2-0.6-0.3-0.8c-0.1-0.3-0.3-0.5-0.4-0.8c-0.1-0.2-0.3-0.5-0.4-0.7
					c-0.2-0.5-0.5-0.9-0.7-1.2c-0.2-0.4-0.4-0.7-0.6-0.9C44.7,8.1,44.5,7.8,44.5,7.8z"/>
			</g>
			<linearGradient id="SVGID_8_" gradientUnits="userSpaceOnUse" x1="0.1946" y1="21.9221" x2="20.8891" y2="21.9221">
				<stop  offset="0" style="stop-color:#F7E939"/>
				<stop  offset="0.2255" style="stop-color:#F7E939;stop-opacity:0"/>
				<stop  offset="0.5" style="stop-color:#F7E939"/>
				<stop  offset="0.7402" style="stop-color:#F7E939;stop-opacity:0"/>
				<stop  offset="1" style="stop-color:#F7E939"/>
			</linearGradient>
			<path class="st7" d="M0.2,28.6l0-0.2l0,0c0,0,0,0,0,0l0,0c0.1-0.5,0.2-1.1,0.4-1.6c0.1-0.3,0.2-0.5,0.3-0.8
				c0.1-0.2,0.2-0.5,0.4-0.7c0.1-0.2,0.3-0.5,0.4-0.7l0.5-0.7c0.3-0.4,0.7-0.9,1.1-1.3c0.4-0.4,0.8-0.8,1.2-1.1
				C4.6,21.4,4.8,21.2,5,21l0.7-0.5c0.4-0.3,0.9-0.6,1.4-0.9c0.5-0.3,0.9-0.5,1.4-0.8c1.9-1,4-1.8,6.1-2.3c1-0.3,2.1-0.5,3.2-0.8
				c1.1-0.2,2.1-0.4,3.2-0.5c-1.1,0.2-2.1,0.4-3.2,0.7c-1,0.3-2.1,0.6-3.1,0.9c-1,0.3-2,0.7-3,1.1c-0.5,0.2-1,0.4-1.5,0.6
				c-0.5,0.2-1,0.5-1.4,0.7c-0.5,0.2-0.9,0.5-1.4,0.8c-0.5,0.3-0.9,0.6-1.4,0.9l-0.6,0.5c-0.2,0.2-0.4,0.3-0.6,0.5
				c-0.2,0.2-0.4,0.3-0.6,0.5c-0.2,0.2-0.4,0.4-0.6,0.5c-0.4,0.4-0.7,0.8-1.1,1.2l-0.5,0.6c-0.2,0.2-0.3,0.5-0.4,0.7
				c-0.2,0.2-0.3,0.5-0.4,0.7c-0.1,0.2-0.2,0.5-0.3,0.7c-0.2,0.5-0.4,1-0.5,1.5l0,0c0,0,0,0,0,0l0,0L0.2,28.6z"/>
			<linearGradient id="SVGID_9_" gradientUnits="userSpaceOnUse" x1="44.4709" y1="42.4071" x2="63.5748" y2="42.4071">
				<stop  offset="0" style="stop-color:#F7E939"/>
				<stop  offset="0.2255" style="stop-color:#F7E939;stop-opacity:0"/>
				<stop  offset="0.5" style="stop-color:#F7E939"/>
				<stop  offset="0.7402" style="stop-color:#F7E939;stop-opacity:0"/>
				<stop  offset="1" style="stop-color:#F7E939"/>
			</linearGradient>
			<path class="st8" d="M63.6,36.3c0,0,0,0.1-0.1,0.3c-0.1,0.2-0.1,0.4-0.2,0.7c-0.1,0.3-0.3,0.7-0.5,1.1c-0.2,0.4-0.4,0.9-0.8,1.3
				c-0.3,0.5-0.7,0.9-1.1,1.4c-0.4,0.5-0.9,1-1.5,1.4c-0.5,0.5-1.1,0.9-1.7,1.3c-0.6,0.4-1.3,0.8-1.9,1.1c-1.3,0.7-2.7,1.3-4,1.8
				c-1.3,0.5-2.6,0.8-3.7,1.1c-1.1,0.3-2,0.4-2.6,0.5c-0.6,0.1-1,0.2-1,0.2s0.4-0.1,1-0.2c0.6-0.2,1.5-0.4,2.6-0.7
				c0.5-0.2,1.1-0.3,1.7-0.5c0.6-0.2,1.2-0.4,1.9-0.7c1.3-0.5,2.7-1.1,3.9-1.8c0.7-0.3,1.3-0.7,1.9-1.1c0.6-0.4,1.2-0.8,1.7-1.2
				c0.5-0.4,1-0.9,1.5-1.3c0.4-0.5,0.8-0.9,1.2-1.3c0.2-0.2,0.3-0.4,0.5-0.6c0.1-0.2,0.3-0.4,0.4-0.6c0.2-0.4,0.4-0.7,0.5-1
				c0.1-0.3,0.2-0.5,0.3-0.7C63.5,36.4,63.6,36.3,63.6,36.3z"/>
		</g>
	</g>
</g>
</svg>
